<svg width="186" height="186" viewBox="0 0 186 186" fill="none" xmlns="http://www.w3.org/2000/svg">
<g filter="url(#filter0_d)">
<path d="M92.7998 180C141.843 180 181.6 140.153 181.6 91C181.6 41.8467 141.843 2 92.7998 2C43.757 2 4 41.8467 4 91C4 140.153 43.757 180 92.7998 180Z" fill="#2D404E"/>
<path d="M181.599 91C181.599 73.1434 176.353 56.5157 167.32 42.5802C167.32 42.5802 162.254 49.9971 163.206 54.7645C164.157 59.5326 169.747 59.8966 169.172 63.394C168.598 66.8915 164.475 62.3931 159.4 71.6102C154.326 80.828 156.864 93.5459 164.157 94.4978C171.451 95.449 181.599 91 181.599 91Z" fill="#48B19B"/>
<path d="M116.12 5.10107C126.456 7.91292 136.043 12.5493 144.515 18.6426C144.515 18.6426 134.218 16.9405 130.317 20.4358C126.417 23.9322 120.729 32.1977 116.12 20.4358C111.512 8.67463 116.12 5.10107 116.12 5.10107Z" fill="#48B19B"/>
<path d="M26.0332 32.3222C42.3079 13.7348 66.186 2 92.7999 2C92.7999 2 86.7754 5.65595 98.1924 11.854C109.61 18.0527 104.376 20.9128 101.998 22.8201C99.6198 24.7273 95.4944 19.006 92.7999 15.1922C90.105 11.3773 78.5323 5.49777 69.6516 8.67709C60.7713 11.8564 53.1615 14.2048 54.429 17.1627C55.6962 20.1198 70.9191 14.4006 76.6276 14.7169C82.3361 15.034 80.4332 18.5297 75.0427 22.6623C69.6516 26.7948 69.0161 31.88 74.725 35.0583C80.4332 38.2379 87.4088 38.5561 88.9964 36.6492C90.583 34.7419 86.142 22.3455 96.9253 27.7485C107.709 33.1514 116.589 36.3324 107.709 44.2778C98.8279 52.2224 88.6801 61.1256 88.3624 66.2093C88.0446 71.2938 91.5349 75.4292 89.6319 75.7455C87.729 76.0619 85.9824 73.6801 84.7146 71.9307C83.4475 70.1823 77.5791 69.5475 74.725 70.659C71.8706 71.7704 66.4784 76.0619 69.492 80.1945C72.506 84.3278 76.6255 82.4181 80.7495 84.3257C84.8728 86.2329 88.7179 93.4916 87.9284 95.1322C87.1389 96.7721 83.624 94.6956 80.7495 89.0938C77.8743 83.4913 72.4818 87.1866 68.6876 86.2329C64.8932 85.2797 62.0388 84.6441 58.2329 77.9688C54.4269 71.2941 46.5477 69.4262 43.328 65.5728C34.105 54.5347 34.7647 46.1836 32.8621 42.3695C30.9592 38.5543 26.0332 32.3222 26.0332 32.3222Z" fill="#48B19B"/>
<path d="M101.363 92.2717C101.363 92.2717 110.877 93.2236 115.634 97.3569C120.391 101.489 121.027 103.08 128.32 104.668C135.614 106.257 138.786 110.388 134.029 118.335C129.272 126.282 120.707 138.996 116.585 142.811C112.464 146.626 107.389 149.804 105.486 156.161C103.584 162.517 102.948 166.329 107.071 168.874C107.071 168.874 104.853 174.278 99.778 167.285C94.7029 160.291 98.8262 152.028 99.778 147.26C100.729 142.493 103.266 128.191 101.68 124.692C100.096 121.195 92.8 118.97 90.897 111.66C88.9941 104.35 92.3244 90.1249 101.363 92.2717Z" fill="#48B19B"/>
<path opacity="0.6" d="M30.0088 28.0683C64.6875 -6.6893 120.911 -6.68861 155.59 28.0683C190.27 62.8246 190.27 119.176 155.591 153.933C155.591 153.933 195.88 100.536 138.839 43.3673C81.7985 -13.802 30.0088 28.0683 30.0088 28.0683Z" fill="#253744"/>
</g>
<defs>
<filter id="filter0_d" x="0" y="0" width="185.6" height="186" filterUnits="userSpaceOnUse" color-interpolation-filters="sRGB">
<feFlood flood-opacity="0" result="BackgroundImageFix"/>
<feColorMatrix in="SourceAlpha" type="matrix" values="0 0 0 0 0 0 0 0 0 0 0 0 0 0 0 0 0 0 127 0"/>
<feOffset dy="2"/>
<feGaussianBlur stdDeviation="2"/>
<feColorMatrix type="matrix" values="0 0 0 0 0 0 0 0 0 0 0 0 0 0 0 0 0 0 0.5 0"/>
<feBlend mode="normal" in2="BackgroundImageFix" result="effect1_dropShadow"/>
<feBlend mode="normal" in="SourceGraphic" in2="effect1_dropShadow" result="shape"/>
</filter>
</defs>
</svg>
