<?xml version="1.0" encoding="UTF-8"?>
<svg width="756px" height="577px" viewBox="0 0 756 577" version="1.1" xmlns="http://www.w3.org/2000/svg" xmlns:xlink="http://www.w3.org/1999/xlink">
    <!-- Generator: Sketch 47.1 (45422) - http://www.bohemiancoding.com/sketch -->
    <title>cosmo-whale@1x</title>
    <desc>Created with Sketch.</desc>
    <defs></defs>
    <g id="Symbols" stroke="none" stroke-width="1" fill="none" fill-rule="evenodd">
        <g id="cosmo-whale">
            <g id="whale" transform="translate(108.000000, 65.000000)">
                <g id="003-whale" transform="translate(0.000000, 99.504587)">
                    <g id="Group" fill-rule="nonzero">
                        <path d="M363.301898,130.672138 C363.301898,130.672138 385.821022,238.037587 469.83781,199.117725 C469.83781,199.117725 434.728613,165.842486 449.436642,146.298881 C464.13562,126.741706 521.383796,68.2918073 521.383796,68.2918073 C521.383796,68.2918073 568.168905,116.171606 526.846131,161.676862 C526.846131,161.676862 568.046715,126.682908 617.524526,166.701844 C617.524526,166.701844 549.351679,270.584633 504.987737,229.765138 C504.987737,229.765138 424.763358,356.031936 231.997664,371.111404" id="Shape" fill="#469B9D"></path>
                        <ellipse id="Oval" fill="#469B9D" cx="186.547591" cy="190.275385" rx="186.547591" ry="186.439936"></ellipse>
                        <path d="M0.248905109,199.931853 C0.248905109,199.931853 64.3985401,225.242202 112.42365,195.517468 C139.66292,178.660486 137.128613,299.468101 216.153723,320.63544 C295.174307,341.798257 426.338248,310.20555 504.992263,229.765138 C504.992263,229.765138 338.818686,471.308 94.140438,359.369862 C94.140438,359.374385 4.05036496,320.902294 0.248905109,199.931853 Z" id="Shape" fill="#D8D8D8"></path>
                    </g>
                    <path d="M208.662291,208.055046 C208.621561,222.320385 210.5947,236.549541 214.590758,250.086688 C215.618058,253.460798 216.790174,256.780633 218.120685,260.037147 C219.473824,263.280092 221.017036,266.428055 222.696014,269.494606 L225.411342,273.967789 L228.438934,278.214826 L231.729007,282.244761 C232.864919,283.547367 234.132072,284.732376 235.326817,285.985229 C237.852072,288.337156 240.485941,290.585055 243.386817,292.453028 C244.771634,293.48878 246.278642,294.330046 247.803751,295.135128 C249.310758,295.976394 250.808715,296.831229 252.428861,297.437303 C255.556014,298.907257 258.87324,299.902303 262.190466,300.88378 C265.575576,301.580312 268.929007,302.51656 272.413678,302.747229 L277.599955,303.289982 L282.826963,303.448284 C286.31616,303.701569 289.818934,303.208569 293.317182,303.131679 C296.806379,302.846734 300.29105,302.294936 303.784773,301.896917 L314.166379,299.884211 L313.003313,300.648587 C313.876744,299.409303 314.686817,297.61822 315.3747,295.994486 C316.008277,294.289339 316.592072,292.552532 316.994846,290.756927 C317.524335,288.992982 317.660101,287.125009 318.022145,285.315835 C318.166963,283.465954 318.415868,281.620596 318.4747,279.757147 C318.452072,277.893697 318.547109,276.021202 318.429445,274.148706 L317.945211,268.535743 L316.981269,262.958963 C316.718788,261.086468 316.085211,259.281817 315.65981,257.440982 C315.175576,255.609193 314.750174,253.759312 314.062291,251.977275 L312.197766,246.590459 C311.586817,244.785807 310.763167,243.062569 310.048131,241.289578 C309.301415,239.534679 308.604481,237.752642 307.807985,236.015835 C306.070174,232.614587 304.41835,229.150018 302.59908,225.775908 L296.838058,215.793789 L303.368423,225.319092 C305.400393,228.589174 307.278496,231.963284 309.247109,235.292165 C310.156744,236.992789 310.975868,238.752211 311.840247,240.47545 C312.663897,242.230349 313.63689,243.917404 314.329299,245.731101 L316.447255,251.154101 C317.212072,252.945183 317.723459,254.826725 318.289153,256.690174 C318.800539,258.567193 319.515576,260.394459 319.864043,262.321229 L321.07689,268.065358 L321.805503,273.913514 C322.004627,275.871945 321.981999,277.848468 322.081561,279.824991 C322.095138,281.801514 321.914116,283.78256 321.814554,285.763606 C321.461561,287.72656 321.334846,289.721174 320.782729,291.661514 C320.366379,293.619945 319.750904,295.53767 319.067547,297.437303 C318.266525,299.350505 317.560539,301.118972 316.248131,303.054789 L315.836306,303.665385 L315.085065,303.819165 L304.468131,306.012789 C300.874846,306.478651 297.295138,307.080202 293.683751,307.428468 C290.049737,307.559633 286.43835,308.097862 282.781707,307.89433 L277.305795,307.790303 C275.486525,307.672706 273.667255,307.392284 271.847985,307.193275 C268.195868,306.903807 264.625211,305.877101 261.054554,305.085587 C257.533678,304.004606 254.021853,302.891963 250.69105,301.281798 C248.971342,300.612404 247.37835,299.680679 245.77178,298.758 C244.151634,297.876028 242.554116,296.957872 241.083313,295.831661 C238.005941,293.791817 235.218204,291.358477 232.561707,288.816587 C231.308131,287.473275 229.982145,286.193284 228.791926,284.795697 L225.370612,280.480817 L222.356598,275.89456 L219.695576,271.109294 C218.066379,267.848257 216.586525,264.532945 215.319372,261.13622 C214.079372,257.73045 212.997766,254.274927 212.083605,250.787743 C211.196598,247.286991 210.436306,243.763624 209.85251,240.213119 C209.332072,236.653569 208.884043,233.089495 208.626087,229.511853 C208.083021,222.361092 207.956306,215.174147 208.662291,208.055046 Z" id="Shape" fill="#218588" fill-rule="nonzero"></path>
                    <g id="Group" transform="translate(58.832117, 108.550459)">
                        <ellipse id="Oval" fill="#434849" cx="19.4824818" cy="19.1953394" rx="17.3418978" ry="17.3318899"></ellipse>
                        <ellipse id="Oval" fill="#FFFFFF" cx="26.0309489" cy="15.8574128" rx="6.54846715" ry="6.54468807"></ellipse>
                    </g>
                </g>
            </g>
            <g id="helmet" transform="translate(-23.000000, 65.000000)">
                <path d="M428.514355,246.5 C428.514355,153.501834 350.219531,69.3630862 324.958396,69.3630862 C192.555021,69.3630862 85.2208775,162.527821 85.2208775,277.452345 C85.2208775,342.985554 113.507822,395.804544 168.05622,433.947328 C185.756278,446.324035 217.738529,405.060536 269.784594,378.523965 C338.626854,343.423569 428.514355,311.946056 428.514355,246.5 Z" id="Oval-2" fill-opacity="0.312896286" fill="#9CD0D1"></path>
                <g id="001-space-suit" stroke-width="1" transform="translate(271.421072, 227.640374) scale(-1, 1) rotate(31.000000) translate(-271.421072, -227.640374) translate(64.394597, 88.914202)">
                    <path d="M0.00258245083,108.052026 L0.00258245083,108.055009 C0.00258245083,107.842445 0.0120514372,107.631372 0.0137730711,107.418808 C0.0120514372,107.62988 0.00258245083,107.840207 0.00258245083,108.052026 Z" id="Shape" fill="#E3E6E9" fill-rule="nonzero"></path>
                    <path d="M413.194716,261.793442 C413.194716,251.923 403.92716,243.89329 392.535109,243.89329 L389.352669,243.89329 L332.262428,243.89329 L270.118331,243.89329 C258.992272,243.89329 248.184716,241.995129 237.984896,238.259218 C232.58413,248.615201 220.567986,255.825979 206.59951,255.825979 C187.583203,255.825979 172.166832,242.468737 172.166832,225.992393 C172.166832,214.742894 179.355514,204.951511 189.966805,199.86936 L127.309661,41.5365552 L115.809147,12.4734221 C114.338011,8.75764902 111.596309,5.65943116 107.988625,3.52036309 C106.352212,2.55002572 104.536749,1.77659002 102.580973,1.23287292 C96.2858185,-0.515375189 89.6282602,0.387836611 84.2619274,3.70906051 L49.0286899,25.5129365 L60.8244644,18.2126581 L103.956558,220.620856 C107.880162,239.033399 121.550796,254.781803 140.879579,263.155345 L172.919186,277.035421 L403.355578,277.035421 C409.253035,273.878281 413.194716,268.226309 413.194716,261.793442 Z" id="Shape" fill="#E3E6E9" fill-rule="nonzero"></path>
                    <path d="M172.919186,277.036912 L140.879579,263.156837 C121.550796,254.783295 107.880162,239.034891 103.956558,220.622348 L60.8244644,18.2141498 L49.0286899,25.5144281 C18.461941,44.430413 0.248776097,74.898708 0.0137730711,107.418808 C0.0120514372,107.631372 0.00258245083,107.842445 0.00258245083,108.055009 L0.00258245083,261.793442 C0.00258245083,268.226309 3.94340242,273.878281 9.84172012,277.036912 L172.919186,277.036912 Z" id="Shape" fill="#B6B8BE" fill-rule="nonzero"></path>
                </g>
            </g>
            <g id="Water" transform="translate(245.000000, 22.000000)" fill="#2595CE">
                <g id="Group">
                    <path d="M39.4506593,72.7883999 C39.4506593,72.7883999 31.1856993,59.7532999 10.5232993,61.1999999 C-10.1391007,62.6503999 2.25833926,29.3503999 24.9869793,33.6904999 C47.7191393,38.0342999 36.6980193,56.8561999 39.4506593,72.7883999 Z" id="Shape" fill-rule="nonzero"></path>
                    <path d="M42.2605913,29.8488954 C42.2605913,29.8488954 42.6125913,20.0364954 31.6125913,12.7955954 C20.6090713,5.55469535 38.5469913,-6.57390465 48.5684313,4.40399535 C58.5969113,15.3855954 46.4212313,20.6913954 42.2605913,29.8488954 Z" id="Shape" fill-rule="nonzero"></path>
                    <path d="M46.0794512,72.7883999 C46.0794512,72.7883999 54.3444112,59.7532999 75.0032912,61.1999999 C95.6692112,62.6503999 83.2752912,29.3503999 60.5431312,33.6904999 C37.8144912,38.0342999 48.8320912,56.8561999 46.0794512,72.7883999 Z" id="Shape" fill-rule="nonzero"></path>
                </g>
            </g>
            <g id="france-flag" transform="translate(259.000000, 333.000000)">
                <g id="001-france">
                    <circle id="Oval" fill="#F0F0F0" fill-rule="nonzero" cx="36.5" cy="36.5" r="36.5"></circle>
                    <path d="M73,36.5 C73,20.8062832 63.0948125,7.42746484 49.195584,2.27027148 L49.195584,70.7298711 C63.0948125,65.5725352 73,52.1937168 73,36.5 Z" id="Shape" fill="#D80027" fill-rule="nonzero"></path>
                    <path d="M0,36.5 C0,52.1937168 9.90533008,65.5725352 23.804416,70.7297285 L23.804416,2.27027148 C9.90533008,7.42746484 0,20.8062832 0,36.5 Z" id="Shape" fill="#0052B4" fill-rule="nonzero"></path>
                </g>
            </g>
        </g>
    </g>
</svg>