<?xml version="1.0" encoding="UTF-8"?>
<svg width="56px" height="56px" viewBox="0 0 56 56" version="1.1" xmlns="http://www.w3.org/2000/svg" xmlns:xlink="http://www.w3.org/1999/xlink">
    <!-- Generator: Sketch 47.1 (45422) - http://www.bohemiancoding.com/sketch -->
    <title>earth</title>
    <desc>Created with Sketch.</desc>
    <defs></defs>
    <g id="Symbols" stroke="none" stroke-width="1" fill="none" fill-rule="evenodd">
        <g id="earth" fill-rule="nonzero">
            <g id="Group-2" transform="translate(5.000000, 6.000000)">
                <circle id="Oval-Copy" fill="#2D404E" cx="22.5" cy="22.5" r="22.5"></circle>
                <path d="M5.76257256,7.69331904 C9.87559168,3.00636378 15.9102055,0.0473534374 22.6362251,0.0473534374 C22.6362251,0.0473534374 21.113677,0.969227963 23.9990495,2.53210159 C26.8845098,4.09515054 25.5619232,4.81636219 24.9608112,5.29728685 C24.3597869,5.7782115 23.317199,4.3355252 22.6362251,3.37385123 C21.9551636,2.41191426 19.0304299,0.929340847 16.7860564,1.73102804 C14.5417706,2.53271524 12.6185979,3.12488549 12.9389222,3.87073073 C13.2591587,4.61640063 17.1063806,3.17424032 18.5490669,3.25401455 C19.9917532,3.33396411 19.5108286,4.21542554 18.1485301,5.25748739 C16.7860564,6.29954925 16.625456,7.58181044 18.0682299,8.38323465 C19.5108286,9.1850095 21.2737514,9.26522206 21.6749895,8.78438507 C22.0759646,8.30346041 20.9536025,5.1776255 23.678813,6.54001158 C26.4040235,7.90239766 28.6483093,8.70452317 26.4040235,10.707996 C24.15965,12.7112935 21.5950399,14.9562807 21.5147397,16.2381912 C21.4344395,17.5202771 22.3165146,18.5630402 21.8355899,18.6428145 C21.3546653,18.7225887 20.9132771,18.1220027 20.5928652,17.6808775 C20.2726286,17.2400153 18.7895292,17.0799408 18.0682299,17.3602026 C17.3468429,17.6404644 15.9841062,18.7225887 16.745731,19.7646506 C17.5074434,20.8068877 18.5485409,20.3253494 19.5907781,20.8063618 C20.63284,21.2872864 21.6045953,23.1176229 21.4050721,23.5313092 C21.2055488,23.9448203 20.3172496,23.4212033 19.5907781,22.0086734 C18.8641313,20.5959682 17.5013069,21.5277487 16.5424382,21.2872864 C15.5834818,21.0469117 14.8620948,20.886662 13.9002455,19.2034257 C12.9383962,17.5203647 10.9471086,17.0493461 10.1334115,16.0776784 C7.80251363,13.2943467 7.96925054,11.18857 7.48841355,10.2268084 C7.00748889,9.26478374 5.76257256,7.69331904 5.76257256,7.69331904 Z" id="Shape-Copy" fill="#48B19B"></path>
                <path d="M24.8671253,22.963248 C24.8671253,22.963248 27.2716609,23.203272 28.4738848,24.2455092 C29.6761088,25.287571 29.8367092,25.6885461 31.68002,26.0891705 C33.5233307,26.4896197 34.3250179,27.5313309 33.1227063,29.5353297 C31.9204823,31.5390655 29.7560584,34.7452007 28.7143472,35.70705 C27.6727236,36.6689869 26.3901995,37.4704111 25.9092748,39.0733472 C25.4284378,40.6761079 25.2678374,41.6373436 26.3098992,42.279044 C26.3098992,42.279044 25.7492004,43.6417807 24.4666762,41.8784196 C23.1840643,40.1148831 24.2261262,38.0312853 24.4666762,36.8289737 C24.7070508,35.6268374 25.3481376,32.0204285 24.9474255,31.1383534 C24.5469764,30.2565413 22.7031397,29.6953165 22.222215,27.8521811 C21.7412904,26.008958 22.5829523,22.4219228 24.8671253,22.963248 Z" id="Shape-Copy-2" fill="#48B19B"></path>
                <path d="M28.3246223,0.863813312 C30.9367463,1.57283967 33.359516,2.74192665 35.5005336,4.27841341 C35.5005336,4.27841341 32.8983157,3.84921051 31.9125341,4.73058428 C30.9268402,5.61222103 29.4892384,7.69643241 28.3245347,4.73058428 C27.1600062,1.76491147 28.3246223,0.863813312 28.3246223,0.863813312 Z" id="Shape-Copy-3" fill="#48B19B"></path>
                <path d="M44.7019957,22.8707341 C44.7019957,18.3680486 43.3761655,14.1752552 41.0933075,10.6613318 C41.0933075,10.6613318 39.8130626,12.5315554 40.0536126,13.7336917 C40.2939872,14.9360033 41.7065171,15.0277875 41.5614332,15.9096873 C41.4163493,16.791587 40.3743751,15.6573026 39.0917633,17.9814504 C37.8092391,20.3057734 38.4507642,23.5126975 40.2939872,23.7527215 C42.137298,23.9925702 44.7019957,22.8707341 44.7019957,22.8707341 Z" id="Shape-Copy-4" fill="#48B19B"></path>
            </g>
            <g id="002-venus" transform="translate(0.000000, 1.000000)" fill="#F3D55B">
                <path d="M54,44 L52.414,44 L50,41.586 L50,40 C50,39.448 49.553,39 49,39 C48.447,39 48,39.448 48,40 L48,41.586 L45.586,44 L44,44 C43.447,44 43,44.448 43,45 C43,45.552 43.447,46 44,46 L45.586,46 L48,48.414 L48,50 C48,50.552 48.447,51 49,51 C49.553,51 50,50.552 50,50 L50,48.414 L52.415,46 L54,46 C54.553,46 55,45.552 55,45 C55,44.448 54.553,44 54,44 Z" id="Shape"></path>
                <circle id="Oval" cx="6" cy="8.5" r="1"></circle>
                <circle id="Oval" cx="25" cy="11.5" r="1"></circle>
                <circle id="Oval" cx="53" cy="16.5" r="1"></circle>
                <circle id="Oval" cx="36.001" cy="4.5" r="1"></circle>
                <circle id="Oval" cx="35" cy="44.5" r="1"></circle>
                <circle id="Oval" cx="3" cy="53.5" r="1"></circle>
                <circle id="Oval" cx="1" cy="42.5" r="1"></circle>
                <circle id="Oval" cx="44" cy="53.5" r="1"></circle>
                <circle id="Oval" cx="51" cy="7" r="1"></circle>
                <circle id="Oval" cx="1" cy="3.5" r="1"></circle>
                <circle id="Oval" cx="12" cy="1.5" r="1"></circle>
            </g>
        </g>
    </g>
</svg>