<?xml version="1.0" encoding="UTF-8"?>
<svg width="61px" height="61px" viewBox="0 0 61 61" version="1.1" xmlns="http://www.w3.org/2000/svg" xmlns:xlink="http://www.w3.org/1999/xlink">
    <!-- Generator: Sketch 47.1 (45422) - http://www.bohemiancoding.com/sketch -->
    <title>moon</title>
    <desc>Created with Sketch.</desc>
    <defs></defs>
    <g id="Page-1" stroke="none" stroke-width="1" fill="none" fill-rule="evenodd">
        <g id="Artboard" transform="translate(-48.000000, -18.000000)">
            <g id="Menu">
                <g id="Moon" transform="translate(47.000000, 17.000000)">
                    <g id="moon" transform="translate(1.000000, 0.000000)">
                        <g id="013-moon-3" transform="translate(2.214286, 3.321429)">
                            <ellipse id="Oval" fill="#CBCBCB" fill-rule="nonzero" cx="26.5714286" cy="26.0178571" rx="26.5714286" ry="26.0178571"></ellipse>
                            <ellipse id="Oval" fill="#CBCBCB" fill-rule="nonzero" cx="26.5714286" cy="26.0178571" rx="26.5714286" ry="26.0178571"></ellipse>
                            <g id="Group" transform="translate(11.071429, 3.321429)" fill-rule="nonzero" fill="#DCDCDC">
                                <ellipse id="Oval" cx="6.33388241" cy="4.8254153" rx="4.95544327" ry="4.77134011"></ellipse>
                                <ellipse id="Oval" cx="28.4054267" cy="7.74388501" rx="3.68024254" ry="3.54351526"></ellipse>
                                <ellipse id="Oval" cx="14.9728718" cy="18.8865546" rx="3.23920808" ry="3.11886599"></ellipse>
                                <ellipse id="Oval" cx="18.6233817" cy="30.7934339" rx="1.36109508" ry="1.31052808"></ellipse>
                                <ellipse id="Oval" cx="1.37513551" cy="17.876621" rx="1.36109508" ry="1.31052808"></ellipse>
                            </g>
                            <circle id="Oval" fill="#DCDCDC" fill-rule="nonzero" cx="27.125" cy="47.0535714" r="1.66071429"></circle>
                            <circle id="Oval" fill="#DCDCDC" fill-rule="nonzero" cx="16.6071429" cy="34.3214286" r="2.21428571"></circle>
                            <circle id="Oval" fill="#DCDCDC" fill-rule="nonzero" cx="43.1785714" cy="33.2142857" r="2.21428571"></circle>
                        </g>
                        <g id="002-venus" transform="translate(0.000000, 1.107143)" fill="#F3D55B">
                            <path d="M59.7857143,48.7142857 L58.0297857,48.7142857 L55.3571429,46.0416429 L55.3571429,44.2857143 C55.3571429,43.6745714 54.86225,43.1785714 54.25,43.1785714 C53.63775,43.1785714 53.1428571,43.6745714 53.1428571,44.2857143 L53.1428571,46.0416429 L50.4702143,48.7142857 L48.7142857,48.7142857 C48.1020357,48.7142857 47.6071429,49.2102857 47.6071429,49.8214286 C47.6071429,50.4325714 48.1020357,50.9285714 48.7142857,50.9285714 L50.4702143,50.9285714 L53.1428571,53.6012143 L53.1428571,55.3571429 C53.1428571,55.9682857 53.63775,56.4642857 54.25,56.4642857 C54.86225,56.4642857 55.3571429,55.9682857 55.3571429,55.3571429 L55.3571429,53.6012143 L58.0308929,50.9285714 L59.7857143,50.9285714 C60.3979643,50.9285714 60.8928571,50.4325714 60.8928571,49.8214286 C60.8928571,49.2102857 60.3979643,48.7142857 59.7857143,48.7142857 Z" id="Shape" fill-rule="nonzero"></path>
                            <circle id="Oval" fill-rule="nonzero" cx="6.64285714" cy="9.41071429" r="1.10714286"></circle>
                            <circle id="Oval" fill-rule="nonzero" cx="27.6785714" cy="12.7321429" r="1.10714286"></circle>
                            <circle id="Oval" fill-rule="nonzero" cx="58.6785714" cy="18.2678571" r="1.10714286"></circle>
                            <circle id="Oval" fill-rule="nonzero" cx="39.85825" cy="4.98214286" r="1.10714286"></circle>
                            <circle id="Oval" fill-rule="nonzero" cx="38.75" cy="49.2678571" r="1.10714286"></circle>
                            <circle id="Oval" fill-rule="nonzero" cx="3.32142857" cy="59.2321429" r="1.10714286"></circle>
                            <circle id="Oval" fill-rule="nonzero" cx="1.10714286" cy="47.0535714" r="1.10714286"></circle>
                            <circle id="Oval" fill-rule="nonzero" cx="48.7142857" cy="59.2321429" r="1.10714286"></circle>
                            <circle id="Oval" fill-rule="nonzero" cx="56.4642857" cy="7.75" r="1.10714286"></circle>
                            <circle id="Oval" fill-rule="nonzero" cx="1.10714286" cy="3.875" r="1.10714286"></circle>
                            <circle id="Oval" fill-rule="nonzero" cx="13.2857143" cy="1.66071429" r="1.10714286"></circle>
                        </g>
                    </g>
                </g>
            </g>
        </g>
    </g>
</svg>