<?xml version="1.0" encoding="UTF-8"?>
<svg width="63px" height="62px" viewBox="0 0 63 62" version="1.1" xmlns="http://www.w3.org/2000/svg" xmlns:xlink="http://www.w3.org/1999/xlink">
    <!-- Generator: Sketch 47.1 (45422) - http://www.bohemiancoding.com/sketch -->
    <title>saturn</title>
    <desc>Created with Sketch.</desc>
    <defs></defs>
    <g id="Page-1" stroke="none" stroke-width="1" fill="none" fill-rule="evenodd">
        <g id="Artboard" transform="translate(-46.000000, -269.000000)">
            <g id="Menu">
                <g id="Saturn" transform="translate(29.000000, 269.000000)">
                    <g id="saturn" transform="translate(17.000000, 0.000000)">
                        <g id="003-saturn">
                            <ellipse id="Oval" fill="#F9C38A" fill-rule="nonzero" cx="32.0431034" cy="30.0539655" rx="22.2672414" ry="21.9137931"></ellipse>
                            <ellipse id="Oval" fill="#FFD199" fill-rule="nonzero" cx="28.7844828" cy="26.847069" rx="15.75" ry="15.5"></ellipse>
                            <ellipse id="Oval" fill="#FFD8AE" fill-rule="nonzero" cx="25.5258621" cy="22.5712069" rx="8.14655172" ry="8.01724138"></ellipse>
                            <path d="M13.0344828,8.14017241 L11.3117586,8.14017241 L8.68965517,5.55968966 L8.68965517,3.86431034 C8.68965517,3.27424138 8.20412069,2.79534483 7.60344828,2.79534483 C7.00277586,2.79534483 6.51724138,3.27424138 6.51724138,3.86431034 L6.51724138,5.55968966 L3.89513793,8.14017241 L2.17241379,8.14017241 C1.57174138,8.14017241 1.0862069,8.61906897 1.0862069,9.20913793 C1.0862069,9.7992069 1.57174138,10.2781034 2.17241379,10.2781034 L3.89513793,10.2781034 L6.51724138,12.8585862 L6.51724138,14.5539655 C6.51724138,15.1440345 7.00277586,15.622931 7.60344828,15.622931 C8.20412069,15.622931 8.68965517,15.1440345 8.68965517,14.5539655 L8.68965517,12.8585862 L11.3117586,10.2781034 L13.0344828,10.2781034 C13.6351552,10.2781034 14.1206897,9.7992069 14.1206897,9.20913793 C14.1206897,8.61906897 13.6351552,8.14017241 13.0344828,8.14017241 Z" id="Shape" fill="#F3D55B" fill-rule="nonzero"></path>
                            <ellipse id="Oval" fill="#F3D55B" fill-rule="nonzero" cx="54.3103448" cy="58.3815517" rx="1.0862069" ry="1.06896552"></ellipse>
                            <ellipse id="Oval" fill="#F3D55B" fill-rule="nonzero" cx="59.7413793" cy="37.0022414" rx="1.0862069" ry="1.06896552"></ellipse>
                            <ellipse id="Oval" fill="#F3D55B" fill-rule="nonzero" cx="5.43103448" cy="25.2436207" rx="1.0862069" ry="1.06896552"></ellipse>
                            <ellipse id="Oval" fill="#F3D55B" fill-rule="nonzero" cx="26.0689655" cy="26.3125862" rx="1.0862069" ry="1.06896552"></ellipse>
                            <ellipse id="Oval" fill="#F3D55B" fill-rule="nonzero" cx="33.6724138" cy="59.4505172" rx="1.0862069" ry="1.06896552"></ellipse>
                            <path d="M37.9792241,9.54372414 C37.9792241,9.54372414 37.9737931,9.54906897 37.9748793,9.54906897 C38.0509138,9.57686207 37.9792241,9.54372414 37.9792241,9.54372414 Z" id="Shape" fill="#F9EAB0" fill-rule="nonzero"></path>
                            <path d="M62.3428448,0.236241379 C60.9525,-1.13203448 53.7618103,3.54789655 44.1434483,11.687 C44.7723621,12.091069 45.3752069,12.5293448 45.9574138,12.9911379 C52.3866724,7.60034483 57.020431,4.37527586 59.4024828,3.12993103 C57.204,7.20162069 48.9748966,17.9276207 33.5952931,33.0620345 C18.2156897,48.1964483 7.31777586,56.296 3.18041379,58.4595862 C4.5512069,55.9207931 8.2682069,50.7940345 14.5986207,43.6255517 C14.1358966,43.0504483 13.6948966,42.4582414 13.2908276,41.8382414 C4.15582759,52.1013793 -1.22741379,59.9091034 0.240051724,61.3532759 C2.36141379,63.4409655 17.9821552,51.4514483 35.1311897,34.5746207 C52.2802241,17.6967241 64.4631207,2.32286207 62.3428448,0.236241379 Z" id="Shape" fill="#F9EAB0" fill-rule="nonzero"></path>
                        </g>
                    </g>
                </g>
            </g>
        </g>
    </g>
</svg>